<svg id="Layer_1" enable-background="new 0 0 512 512" height="512" viewBox="0 0 512 512" width="512" xmlns="http://www.w3.org/2000/svg"><g><g><path clip-rule="evenodd" d="m256.089 261.395 230.311 7.076-230.311 7.076-230.489-7.076z" fill="#141515" fill-rule="evenodd"/></g><g><path clip-rule="evenodd" d="m56.202 235.746 4.599 31.84h-9.198z" fill="#141515" fill-rule="evenodd"/></g><g><path clip-rule="evenodd" d="m56.202 345.772 4.599-78.186h-9.198z" fill="#141515" fill-rule="evenodd"/></g><g><path clip-rule="evenodd" d="m65.4 220.533 4.6 47.053h-9.199z" fill="#141515" fill-rule="evenodd"/></g><g><path clip-rule="evenodd" d="m65.4 328.967 4.6-61.381h-9.199z" fill="#141515" fill-rule="evenodd"/></g><g><path clip-rule="evenodd" d="m74.599 174.718 4.599 92.868h-9.198z" fill="#141515" fill-rule="evenodd"/></g><g><path clip-rule="evenodd" d="m74.599 316.939 4.599-49.353h-9.198z" fill="#141515" fill-rule="evenodd"/></g><g><path clip-rule="evenodd" d="m83.797 210.804 4.599 56.782h-9.198z" fill="#141515" fill-rule="evenodd"/></g><g><path clip-rule="evenodd" d="m83.797 299.426 4.599-31.84h-9.198z" fill="#141515" fill-rule="evenodd"/></g><g><path clip-rule="evenodd" d="m92.995 235.746 4.6 31.84h-9.199z" fill="#141515" fill-rule="evenodd"/></g><g><path clip-rule="evenodd" d="m92.995 281.561 4.6-13.975h-9.199z" fill="#141515" fill-rule="evenodd"/></g><g><path clip-rule="evenodd" d="m102.194 197.891 4.599 69.695h-9.198z" fill="#141515" fill-rule="evenodd"/></g><g><path clip-rule="evenodd" d="m102.194 316.408 4.599-48.822h-9.198z" fill="#141515" fill-rule="evenodd"/></g><g><path clip-rule="evenodd" d="m111.392 136.334 4.599 131.252h-9.198z" fill="#141515" fill-rule="evenodd"/></g><g><path clip-rule="evenodd" d="m111.392 326.136 4.599-58.55h-9.198z" fill="#141515" fill-rule="evenodd"/></g><g><path clip-rule="evenodd" d="m120.59 152.254 4.599 115.332h-9.198z" fill="#141515" fill-rule="evenodd"/></g><g><path clip-rule="evenodd" d="m120.59 347.895 4.599-80.309h-9.198z" fill="#141515" fill-rule="evenodd"/></g><g><path clip-rule="evenodd" d="m129.789 179.672 4.599 87.914h-9.199z" fill="#141515" fill-rule="evenodd"/></g><g><path clip-rule="evenodd" d="m129.789 376.373 4.599-108.787h-9.199z" fill="#141515" fill-rule="evenodd"/></g><g><path clip-rule="evenodd" d="m138.987 209.92 4.599 57.666h-9.198z" fill="#141515" fill-rule="evenodd"/></g><g><path clip-rule="evenodd" d="m138.987 340.642 4.599-73.056h-9.198z" fill="#141515" fill-rule="evenodd"/></g><g><path clip-rule="evenodd" d="m148.185 235.746 4.599 31.84h-9.198z" fill="#141515" fill-rule="evenodd"/></g><g><path clip-rule="evenodd" d="m148.185 299.426 4.599-31.84h-9.198z" fill="#141515" fill-rule="evenodd"/></g><g><path clip-rule="evenodd" d="m157.383 251.666 4.6 15.92h-9.199z" fill="#141515" fill-rule="evenodd"/></g><g><path clip-rule="evenodd" d="m157.383 322.246 4.6-54.66h-9.199z" fill="#141515" fill-rule="evenodd"/></g><g><path clip-rule="evenodd" d="m166.582 235.746 4.599 31.84h-9.198z" fill="#141515" fill-rule="evenodd"/></g><g><path clip-rule="evenodd" d="m166.582 340.465 4.599-72.879h-9.198z" fill="#141515" fill-rule="evenodd"/></g><g><path clip-rule="evenodd" d="m175.78 206.205 4.599 61.381h-9.198z" fill="#141515" fill-rule="evenodd"/></g><g><path clip-rule="evenodd" d="m175.78 359.039 4.599-91.453h-9.198z" fill="#141515" fill-rule="evenodd"/></g><g><path clip-rule="evenodd" d="m184.978 184.979 4.6 82.607h-9.199z" fill="#141515" fill-rule="evenodd"/></g><g><path clip-rule="evenodd" d="m184.978 334.451 4.6-66.865h-9.199z" fill="#141515" fill-rule="evenodd"/></g><g><path clip-rule="evenodd" d="m194.177 138.28 4.599 129.306h-9.198z" fill="#141515" fill-rule="evenodd"/></g><g><path clip-rule="evenodd" d="m194.177 318.53 4.599-50.944h-9.198z" fill="#141515" fill-rule="evenodd"/></g><g><path clip-rule="evenodd" d="m203.375 162.868 4.599 104.718h-9.198z" fill="#141515" fill-rule="evenodd"/></g><g><path clip-rule="evenodd" d="m203.375 308.271 4.599-40.685h-9.198z" fill="#141515" fill-rule="evenodd"/></g><g><path clip-rule="evenodd" d="m212.573 188.693 4.599 78.893h-9.198z" fill="#141515" fill-rule="evenodd"/></g><g><path clip-rule="evenodd" d="m212.573 317.293 4.599-49.707h-9.198z" fill="#141515" fill-rule="evenodd"/></g><g><path clip-rule="evenodd" d="m221.772 212.574 4.599 55.012h-9.199z" fill="#141515" fill-rule="evenodd"/></g><g><path clip-rule="evenodd" d="m221.772 337.104 4.599-69.518h-9.199z" fill="#141515" fill-rule="evenodd"/></g><g><path clip-rule="evenodd" d="m230.97 228.493 4.599 39.093h-9.198z" fill="#141515" fill-rule="evenodd"/></g><g><path clip-rule="evenodd" d="m230.97 363.992 4.599-96.406h-9.198z" fill="#141515" fill-rule="evenodd"/></g><g><path clip-rule="evenodd" d="m240.168 222.833 4.599 44.753h-9.198z" fill="#141515" fill-rule="evenodd"/></g><g><path clip-rule="evenodd" d="m240.168 352.67 4.599-85.084h-9.198z" fill="#141515" fill-rule="evenodd"/></g><g><path clip-rule="evenodd" d="m249.366 207.974 4.6 59.612h-9.199z" fill="#141515" fill-rule="evenodd"/></g><g><path clip-rule="evenodd" d="m249.366 320.83 4.6-53.244h-9.199z" fill="#141515" fill-rule="evenodd"/></g><g><path clip-rule="evenodd" d="m258.565 180.556 4.599 87.03h-9.198z" fill="#141515" fill-rule="evenodd"/></g><g><path clip-rule="evenodd" d="m258.565 283.507 4.599-15.921h-9.198z" fill="#141515" fill-rule="evenodd"/></g><g><path clip-rule="evenodd" d="m267.763 153.668 4.599 113.918h-9.198z" fill="#141515" fill-rule="evenodd"/></g><g><path clip-rule="evenodd" d="m267.763 289.167 4.599-21.581h-9.198z" fill="#141515" fill-rule="evenodd"/></g><g><path clip-rule="evenodd" d="m276.961 130.85 4.6 136.736h-9.199z" fill="#141515" fill-rule="evenodd"/></g><g><path clip-rule="evenodd" d="m276.961 299.426 4.6-31.84h-9.199z" fill="#141515" fill-rule="evenodd"/></g><g><path clip-rule="evenodd" d="m286.16 170.827 4.599 96.759h-9.198z" fill="#141515" fill-rule="evenodd"/></g><g><path clip-rule="evenodd" d="m286.16 313.931 4.599-46.345h-9.198z" fill="#141515" fill-rule="evenodd"/></g><g><path clip-rule="evenodd" d="m295.358 189.4 4.599 78.186h-9.198z" fill="#141515" fill-rule="evenodd"/></g><g><path clip-rule="evenodd" d="m295.358 337.104 4.599-69.518h-9.198z" fill="#141515" fill-rule="evenodd"/></g><g><path clip-rule="evenodd" d="m304.556 202.668 4.599 64.918h-9.198z" fill="#141515" fill-rule="evenodd"/></g><g><path clip-rule="evenodd" d="m304.556 381.15 4.599-113.564h-9.198z" fill="#141515" fill-rule="evenodd"/></g><g><path clip-rule="evenodd" d="m313.755 243.175 4.599 24.411h-9.199z" fill="#141515" fill-rule="evenodd"/></g><g><path clip-rule="evenodd" d="m313.755 327.552 4.599-59.966h-9.199z" fill="#141515" fill-rule="evenodd"/></g><g><path clip-rule="evenodd" d="m322.953 203.375 4.599 64.211h-9.198z" fill="#141515" fill-rule="evenodd"/></g><g><path clip-rule="evenodd" d="m322.953 377.612 4.599-110.026h-9.198z" fill="#141515" fill-rule="evenodd"/></g><g><path clip-rule="evenodd" d="m332.328 184.801 4.6 82.785h-9.376z" fill="#141515" fill-rule="evenodd"/></g><g><path clip-rule="evenodd" d="m332.328 352.317 4.6-84.731h-9.376z" fill="#141515" fill-rule="evenodd"/></g><g><path clip-rule="evenodd" d="m341.527 158.269 4.599 109.317h-9.198z" fill="#141515" fill-rule="evenodd"/></g><g><path clip-rule="evenodd" d="m341.527 321.184 4.599-53.598h-9.198z" fill="#141515" fill-rule="evenodd"/></g><g><path clip-rule="evenodd" d="m350.725 177.549 4.599 90.037h-9.198z" fill="#141515" fill-rule="evenodd"/></g><g><path clip-rule="evenodd" d="m350.725 299.426 4.599-31.84h-9.198z" fill="#141515" fill-rule="evenodd"/></g><g><path clip-rule="evenodd" d="m359.923 202.668 4.6 64.918h-9.199z" fill="#141515" fill-rule="evenodd"/></g><g><path clip-rule="evenodd" d="m359.923 283.507 4.6-15.921h-9.199z" fill="#141515" fill-rule="evenodd"/></g><g><path clip-rule="evenodd" d="m369.122 245.475 4.599 22.111h-9.198z" fill="#141515" fill-rule="evenodd"/></g><g><path clip-rule="evenodd" d="m369.122 299.426 4.599-31.84h-9.198z" fill="#141515" fill-rule="evenodd"/></g><g><path clip-rule="evenodd" d="m378.32 235.746 4.599 31.84h-9.198z" fill="#141515" fill-rule="evenodd"/></g><g><path clip-rule="evenodd" d="m378.32 321.538 4.599-53.952h-9.198z" fill="#141515" fill-rule="evenodd"/></g><g><path clip-rule="evenodd" d="m387.518 209.036 4.599 58.55h-9.198z" fill="#141515" fill-rule="evenodd"/></g><g><path clip-rule="evenodd" d="m387.518 332.505 4.599-64.919h-9.198z" fill="#141515" fill-rule="evenodd"/></g><g><path clip-rule="evenodd" d="m396.717 188.693 4.599 78.893h-9.199z" fill="#141515" fill-rule="evenodd"/></g><g><path clip-rule="evenodd" d="m396.717 356.032 4.599-88.446h-9.199z" fill="#141515" fill-rule="evenodd"/></g><g><path clip-rule="evenodd" d="m405.915 146.947 4.599 120.639h-9.198z" fill="#141515" fill-rule="evenodd"/></g><g><path clip-rule="evenodd" d="m405.915 332.859 4.599-65.273h-9.198z" fill="#141515" fill-rule="evenodd"/></g><g><path clip-rule="evenodd" d="m415.113 172.242 4.599 95.344h-9.198z" fill="#141515" fill-rule="evenodd"/></g><g><path clip-rule="evenodd" d="m415.113 311.278 4.599-43.692h-9.198z" fill="#141515" fill-rule="evenodd"/></g><g><path clip-rule="evenodd" d="m424.311 196.123 4.6 71.463h-9.199z" fill="#141515" fill-rule="evenodd"/></g><g><path clip-rule="evenodd" d="m424.311 299.426 4.6-31.84h-9.199z" fill="#141515" fill-rule="evenodd"/></g><g><path clip-rule="evenodd" d="m433.51 211.689 4.599 55.897h-9.198z" fill="#141515" fill-rule="evenodd"/></g><g><path clip-rule="evenodd" d="m433.51 318.884 4.599-51.298h-9.198z" fill="#141515" fill-rule="evenodd"/></g><g><path clip-rule="evenodd" d="m442.708 251.666 4.599 15.92h-9.198z" fill="#141515" fill-rule="evenodd"/></g><g><path clip-rule="evenodd" d="m442.708 334.451 4.599-66.865h-9.198z" fill="#141515" fill-rule="evenodd"/></g><g><path clip-rule="evenodd" d="m451.906 206.028 4.6 61.558h-9.199z" fill="#141515" fill-rule="evenodd"/></g><g><path clip-rule="evenodd" d="m451.906 323.307 4.6-55.721h-9.199z" fill="#141515" fill-rule="evenodd"/></g></g></svg>