<?xml version="1.0" encoding="UTF-8" standalone="no"?>
<!-- Created with Inkscape (http://www.inkscape.org/) -->

<svg
   version="1.1"
   id="svg2085"
   xml:space="preserve"
   width="682.66669"
   height="682.66669"
   viewBox="0 0 682.66669 682.66669"
   xmlns="http://www.w3.org/2000/svg"
   xmlns:svg="http://www.w3.org/2000/svg"><defs
     id="defs2089"><clipPath
       clipPathUnits="userSpaceOnUse"
       id="clipPath2099"><path
         d="M 0,512 H 512 V 0 H 0 Z"
         id="path2097" /></clipPath></defs><g
     id="g2091"
     transform="matrix(1.3333333,0,0,-1.3333333,0,682.66667)"><g
       id="g2093"><g
         id="g2095"
         clip-path="url(#clipPath2099)"><g
           id="g2101"
           transform="translate(285.1133,445.7051)"><path
             d="M 0,0 -29.113,-24.954 -58.227,0 c -20.058,17.193 -51.075,9.575 -60.886,-14.954 l 30,-95.751 h 120 l 30,95.751 C 51.075,9.575 20.059,17.193 0,0 Z"
             style="fill:none;stroke:#000000;stroke-width:39;stroke-linecap:round;stroke-linejoin:round;stroke-miterlimit:10;stroke-dasharray:none;stroke-opacity:1"
             id="path2103" /></g><g
           id="g2105"
           transform="translate(229.7295,335)"><path
             d="m 0,0 v 0 c -42.176,-92.65 -68.188,-191.833 -76.914,-293.256 l -1.815,-21.101 c 69.659,-7.524 140.34,-7.524 210,0 l -1.816,21.101 C 120.729,-191.833 94.717,-92.65 52.542,0 h -0.001"
             style="fill:none;stroke:#000000;stroke-width:39;stroke-linecap:round;stroke-linejoin:round;stroke-miterlimit:10;stroke-dasharray:none;stroke-opacity:1"
             id="path2107" /></g><g
           id="g2109"
           transform="translate(196,335)"><path
             d="M 0,0 -1.474,-1.351 C -76.999,-70.583 -120,-168.334 -120,-270.79 v -10e-4 c 25.317,-8.438 51.096,-14.935 77.11,-19.717"
             style="fill:none;stroke:#000000;stroke-width:39;stroke-linecap:round;stroke-linejoin:round;stroke-miterlimit:10;stroke-dasharray:none;stroke-opacity:1"
             id="path2111" /></g><g
           id="g2113"
           transform="translate(358.8896,44.4917)"><path
             d="m 0,0 c 26.015,4.782 51.793,11.279 77.11,19.718 v 0.001 c 0,102.455 -43.001,200.207 -118.526,269.439 l -1.474,1.35"
             style="fill:none;stroke:#000000;stroke-width:39;stroke-linecap:round;stroke-linejoin:round;stroke-miterlimit:10;stroke-dasharray:none;stroke-opacity:1"
             id="path2115" /></g><g
           id="g2117"
           transform="translate(166,430.7515)"><path
             d="M 0,0 V 66.249"
             style="fill:none;stroke:#000000;stroke-width:39;stroke-linecap:round;stroke-linejoin:round;stroke-miterlimit:10;stroke-dasharray:none;stroke-opacity:1"
             id="path2119" /></g><g
           id="g2121"
           transform="translate(346,430.7515)"><path
             d="M 0,0 V 66.249"
             style="fill:none;stroke:#000000;stroke-width:39;stroke-linecap:round;stroke-linejoin:round;stroke-miterlimit:10;stroke-dasharray:none;stroke-opacity:1"
             id="path2123" /></g></g></g></g></svg>
